<?xml version="1.0" encoding="utf-8"?><svg viewBox="0 0 97 89" xmlns="http://www.w3.org/2000/svg" xmlns:xlink="http://www.w3.org/1999/xlink"><style>:root>svg{display:none}:root>svg:target{display:block}</style><svg fill="none" viewBox="0 0 90 89" id="ae_icon" xmlns="http://www.w3.org/2000/svg"><path d="M4.202 3.783h81.76v81.005H4.203V3.783z" fill="url(#apaint0_radial_254_447)"/><path d="M4.202 3.784h81.76v81.005H4.203V3.784zM.487 88.572h89.21V0H.486v88.572zm63.111-45.878c1.894 0 2.572 0 2.751-.072 0-.273.071-.455.071-.637 0-2.037-.964-5.821-4.823-5.821-3.572 0-5.09 3.183-5.466 6.549h7.467v-.019zM56.06 47.88c.071 5.112 2.447 8.55 8.11 8.55 2.197 0 4.09-.31 6.055-1.165.268-.109.447-.072.447.273v4.73c0 .382-.107.564-.375.764-1.965.982-4.43 1.437-7.467 1.437-9.807 0-13.487-7.385-13.487-15.59 0-8.931 4.537-16.244 12.522-16.244 8.11 0 10.933 6.93 10.933 12.57 0 1.819-.108 3.292-.304 4.02-.072.31-.179.418-.482.491-.75.11-2.93.273-6.199.273h-9.736v-.11h-.017zm-19.936-3.857c-1.036-4.202-3.573-13.352-4.501-17.79h-.072c-.786 4.42-2.822 11.915-4.34 17.79h8.913zm-10.432 6.13l-2.93 11.316c-.071.309-.178.418-.553.418h-5.484c-.376 0-.447-.11-.376-.564L26.907 23.74c.178-.673.303-1.218.375-3.11 0-.273.107-.382.303-.382h7.807c.268 0 .375.072.446.382l11.808 40.766c.072.31 0 .491-.304.491h-6.127c-.303 0-.482-.11-.554-.382l-3.054-11.351H25.692z" fill="#D8A1FF"/><defs><radialGradient id="apaint0_radial_254_447" cx="0" cy="0" r="1" gradientUnits="userSpaceOnUse" gradientTransform="matrix(62.1407 0 0 61.2673 31.155 21.944)"><stop stop-color="#442F55" stop-opacity=".98"/><stop offset="1" stop-color="#12002C"/></radialGradient></defs></svg><svg fill="none" viewBox="0 0 90 89" id="ai_icon" xmlns="http://www.w3.org/2000/svg"><path d="M4.202 3.783h81.76v81.005H4.203V3.783z" fill="url(#bpaint0_radial_254_448)"/><path d="M4.202 3.784h81.76v81.005H4.203V3.784zM.487 88.572h89.21V0H.486v88.572zm58.43-56.992c0-.31.108-.455.447-.455h5.842c.303 0 .446.11.446.455v29.87c0 .309-.071.454-.446.454h-5.77c-.375 0-.483-.182-.483-.49V31.58h-.035zm-.41-8.605c0-2.42 1.68-3.856 3.787-3.856 2.269 0 3.787 1.546 3.787 3.856 0 2.492-1.59 3.857-3.859 3.857-2.143.018-3.715-1.346-3.715-3.857zm-16.72 21.047c-1.036-4.202-3.501-13.352-4.43-17.79h-.072c-.786 4.42-2.75 11.915-4.305 17.79h8.807zm-10.325 6.13l-2.93 11.352c-.071.31-.178.382-.553.382h-5.467c-.375 0-.446-.11-.375-.564l10.557-37.619c.179-.673.304-1.292.375-3.147 0-.273.108-.382.304-.382h7.806c.268 0 .376.073.447.382l11.826 40.839c.071.31 0 .491-.304.491h-6.163c-.304 0-.482-.073-.554-.346l-3.054-11.387H31.462z" fill="#FF7F18"/><defs><radialGradient id="bpaint0_radial_254_448" cx="0" cy="0" r="1" gradientUnits="userSpaceOnUse" gradientTransform="matrix(62.1406 0 0 61.2673 31.157 21.96)"><stop stop-color="#423325" stop-opacity=".98"/><stop offset="1" stop-color="#1C0A00"/></radialGradient></defs></svg><svg fill="none" viewBox="0 0 41 40" id="behance_icon" xmlns="http://www.w3.org/2000/svg"><path d="M34.32 0H5.96C2.72 0 .085 2.628.085 5.86v28.28C.085 37.372 2.72 40 5.96 40h28.36c3.24 0 5.876-2.629 5.876-5.86V5.86C40.196 2.627 37.56 0 34.32 0zm3.526 34.14a3.525 3.525 0 01-3.526 3.516H5.96a3.525 3.525 0 01-3.525-3.515V5.859A3.525 3.525 0 015.96 2.344h28.36a3.525 3.525 0 013.526 3.515v28.282z" fill="#070707" stroke="#070707" stroke-width=".5"/><path d="M18.965 16.484c0-2.585-2.108-4.687-4.7-4.687H7.214v16.406h7.05c2.593 0 4.701-2.102 4.701-4.687A4.67 4.67 0 0017.37 20a4.67 4.67 0 001.596-3.516zm-2.35 7.032a2.35 2.35 0 01-2.35 2.343h-4.7v-4.687h4.7a2.35 2.35 0 012.35 2.344zm-7.05-4.688v-4.687h4.7a2.35 2.35 0 012.35 2.343 2.35 2.35 0 01-2.35 2.344h-4.7zM27.191 16.484c-3.24 0-5.876 2.629-5.876 5.86 0 3.23 2.636 5.86 5.876 5.86a5.9 5.9 0 005.089-2.93l-2.035-1.173a3.53 3.53 0 01-6.378-.585h9.2v-1.172c0-3.231-2.636-5.86-5.876-5.86zm-3.324 4.688a3.53 3.53 0 016.648 0h-6.648zM22.49 11.797h9.402v2.344H22.49v-2.344z" fill="#070707" stroke="#070707" stroke-width=".5"/></svg><svg fill="none" viewBox="0 0 40 41" id="dribble_icon" xmlns="http://www.w3.org/2000/svg"><path d="M30.664 7.902l.305-.384-.378-.313A16.673 16.673 0 0019.92 3.36a16.9 16.9 0 00-4.097.525l-.727.181.447.602c1.39 1.87 3.388 4.696 5.78 9.122l.207.382.408-.152c4.527-1.68 7.24-4.252 8.725-6.118zm-17.3-2.758l-.246-.323-.366.173c-4.496 2.121-7.903 6.172-9.247 11.119l-.167.61.633.02c2.476.079 8.394-.038 14.952-1.795l.619-.165-.311-.56c-2.544-4.584-4.683-7.518-5.868-9.079zm19.453 4.26l-.388-.462-.381.466c-1.656 2.021-4.532 4.647-9.084 6.428l-.506.198.24.488a72.893 72.893 0 012.8 6.427l.144.379.4-.061a38.402 38.402 0 018.637-.323c.56.046.92.099 1.34.16l.275.039.512.072.055-.514a17.62 17.62 0 00-4.044-13.298zM20.67 17.03l-.185-.37-.399.113c-7.713 2.19-14.508 2.124-16.624 2.039l-.482-.02-.037.48-.002.035c-.037.476-.074.965-.074 1.485 0 5.234 2.264 9.906 5.835 13.102l.373.334.333-.373a49.75 49.75 0 013.556-3.608l.002-.001c2.746-2.532 6.28-5.21 10.128-6.38l.517-.157-.196-.503a74.456 74.456 0 00-2.745-6.176zm9.49 7.897h-.006a38.168 38.168 0 00-3.182.292l-.595.08.186.57c.924 2.844 1.688 5.857 2.181 8.99l.125.79.655-.457a17.321 17.321 0 006.719-9.386l.165-.57-.59-.066c-1.46-.165-3.31-.331-5.658-.243zm-5.656 1.185l-.154-.453-.46.133c-3.381.984-6.918 3.535-9.598 5.996-1.296 1.178-2.341 2.297-3.181 3.213l-.413.451.524.315c2.545 1.535 5.501 2.438 8.69 2.438 2.394 0 4.652-.506 6.714-1.397l.348-.15-.051-.376c-.484-3.574-1.339-6.98-2.42-10.17zM.868 20.782c0-10.753 8.567-19.499 19.054-19.499 10.487 0 19.054 8.746 19.054 19.5 0 10.752-8.567 19.498-19.054 19.498C9.435 40.281.868 31.535.868 20.782z" fill="#070707" stroke="#070707"/></svg><svg fill="none" viewBox="0 0 22 20" id="empty_star" xmlns="http://www.w3.org/2000/svg"><path d="M10.182.86c.3-.92 1.601-.92 1.901 0l1.751 5.374a1 1 0 00.951.69h5.661c.97 0 1.372 1.241.587 1.81l-4.575 3.315a1 1 0 00-.364 1.12l1.748 5.366c.3.92-.753 1.688-1.537 1.12l-4.586-3.323a1 1 0 00-1.173 0L5.96 19.654c-.784.569-1.837-.198-1.537-1.12l1.748-5.366a1 1 0 00-.364-1.12L1.232 8.735c-.785-.569-.382-1.81.587-1.81h5.66a1 1 0 00.952-.69L10.18.86z" fill="#E5E5E5"/></svg><svg fill="none" viewBox="0 0 59 89" id="figma_icon" xmlns="http://www.w3.org/2000/svg"><path d="M15.046 88.991c8.038 0 14.558-6.64 14.558-14.826V59.34H15.046c-8.04 0-14.56 6.64-14.56 14.825 0 8.186 6.521 14.826 14.56 14.826z" fill="#0ACF83"/><path d="M.487 44.496c0-8.186 6.52-14.826 14.559-14.826h14.558v29.67H15.046C7.006 59.32.486 52.681.486 44.495z" fill="#A259FF"/><path d="M.487 14.826C.487 6.64 7.007 0 15.046 0h14.558v29.67H15.046c-8.04 0-14.56-6.658-14.56-14.844z" fill="#F24E1E"/><path d="M29.622 0H44.18c8.038 0 14.558 6.64 14.558 14.826S52.22 29.65 44.181 29.65H29.62V0z" fill="#FF7262"/><path d="M58.74 44.496c0 8.186-6.52 14.825-14.56 14.825-8.038 0-14.558-6.64-14.558-14.825 0-8.186 6.52-14.826 14.559-14.826 8.038 0 14.558 6.64 14.558 14.826z" fill="#1ABCFE"/></svg><svg fill="none" viewBox="0 0 22 20" id="fill_star" xmlns="http://www.w3.org/2000/svg"><path d="M9.793.86c.3-.92 1.602-.92 1.902 0l1.751 5.374a1 1 0 00.95.69h5.662c.969 0 1.371 1.241.586 1.81l-4.575 3.315a1 1 0 00-.364 1.12l1.749 5.366c.3.92-.753 1.688-1.538 1.12l-4.585-3.323a1 1 0 00-1.174 0l-4.585 3.322c-.784.569-1.838-.198-1.538-1.12l1.749-5.366a1 1 0 00-.364-1.12L.844 8.735c-.785-.569-.383-1.81.587-1.81h5.66a1 1 0 00.951-.69L9.793.86z" fill="#070707"/></svg><svg fill="none" viewBox="0 0 40 41" id="instagram_icon" xmlns="http://www.w3.org/2000/svg"><path d="M12.166 1.293h.5v-.01h15.905c5.965 0 10.847 4.985 10.847 11.112V29.17c0 6.128-4.883 11.112-10.838 11.112H12.166C6.2 40.281 1.31 35.305 1.31 29.188V12.405C1.31 6.278 6.2 1.293 12.166 1.293zm-8.848 11.12v16.785c0 4.986 3.928 9.017 8.848 9.017H28.58c4.904 0 8.83-4.032 8.83-9.036V12.405c0-5.004-3.927-9.036-8.839-9.036H12.166c-4.913 0-8.838 4.032-8.848 9.045zm28.084-3.93c0-.59.454-1.038 1.005-1.038.55 0 1.004.448 1.004 1.038 0 .59-.454 1.038-1.004 1.038s-1.004-.448-1.004-1.038zM10.345 20.787c0-5.656 4.525-10.266 10.03-10.266 5.504 0 10.029 4.61 10.029 10.266s-4.525 10.266-10.03 10.266c-5.504 0-10.029-4.61-10.029-10.266zm18.05 0c0-4.534-3.56-8.19-8.02-8.19-4.461 0-8.021 3.656-8.021 8.19 0 4.534 3.56 8.19 8.02 8.19 4.461 0 8.021-3.656 8.021-8.19z" fill="#070707" stroke="#070707"/></svg><svg fill="none" viewBox="0 0 41 41" id="linkedIn_icon" xmlns="http://www.w3.org/2000/svg"><path d="M34.575.643h-28.4C2.932.643.293 3.275.293 6.51v28.323c0 3.235 2.64 5.868 5.884 5.868h28.399c3.244 0 5.884-2.633 5.884-5.868V6.51c0-3.236-2.64-5.868-5.884-5.868zm3.53 34.19a3.53 3.53 0 01-3.53 3.521h-28.4a3.53 3.53 0 01-3.53-3.52V6.51a3.53 3.53 0 013.53-3.521h28.4a3.53 3.53 0 013.53 3.52v28.324z" fill="#070707" stroke="#070707" stroke-width=".5"/><mask id="ia" fill="#fff"><path d="M31.42 29.679h-4.312v-.199-7.003c0-.497-.036-.988-.161-1.472-.515-1.999-2.741-1.882-3.627-.935-.445.476-.736 1.014-.748 1.679-.002.158-.012.317-.012.475v7.453h-4.304V16.313h4.302v1.793l.034.015c.03-.041.062-.082.092-.125.432-.598.927-1.13 1.585-1.488.736-.402 1.53-.536 2.356-.512.895.026 1.744.227 2.51.709.98.617 1.579 1.52 1.929 2.604.273.845.362 1.716.363 2.598.002 2.539 0 5.077 0 7.616 0 .05-.004.1-.007.157z"/></mask><path d="M31.42 29.679h-4.312v-.199-7.003c0-.497-.036-.988-.161-1.472-.515-1.999-2.741-1.882-3.627-.935-.445.476-.736 1.014-.748 1.679-.002.158-.012.317-.012.475v7.453h-4.304V16.313h4.302v1.793l.034.015c.03-.041.062-.082.092-.125.432-.598.927-1.13 1.585-1.488.736-.402 1.53-.536 2.356-.512.895.026 1.744.227 2.51.709.98.617 1.579 1.52 1.929 2.604.273.845.362 1.716.363 2.598.002 2.539 0 5.077 0 7.616 0 .05-.004.1-.007.157z" fill="#070707"/><path d="M31.42 29.679v.03h.029l.001-.029-.03-.001zm-4.312 0h-.03v.03h.03v-.03zm0-7.202h.031-.03zm-.161-1.472l.03-.008-.03.008zm-3.627-.935l.023.021-.023-.02zm-.748 1.679h-.03.03zm-.012.475h.03-.03zm0 7.453v.031h.03v-.03h-.03zm-4.304 0h-.03v.031h.03v-.03zm0-13.365v-.03h-.03v.03h.03zm4.302 0h.03v-.03h-.03v.03zm0 1.793h-.031v.02l.018.008.012-.028zm.034.015l-.012.028.022.01.015-.02-.025-.018zm.092-.125l.025.018-.025-.018zm1.585-1.488l.015.027-.015-.027zm2.356-.512l.001-.03v.03zm2.51.709l.016-.026-.016.026zm1.929 2.604l-.03.01.03-.01zm.363 2.598h.03-.03zm0 7.616h-.03.03zm-.007.126H27.108v.061H31.42v-.06zm-4.281.03v-.001-.001-.001-.001-.001-.001-.001-.001-.001-.001-.001-.001-.001-.001-.001-.001-.001-.001-.001-.001-.001-.001-.001-.001-.001-.001-.001-.001-.001-.001-.001-.001-.001-.001-.001-.001-.001-.001-.001-.001-.001-.001-.001-.001-.001-.001-.001-.001-.001-.001-.001-.001-.001-.001-.001-.001-.001-.001-.001-.001-.001-.001-.001-.001-.001-.001-.001-.001-.001-.001-.001-.001-.001-.001-.001-.001-.001-.001-.001-.001-.001-.001-.001-.001-.001-.001-.001-.001-.001-.001-.001-.001-.001-.001-.001-.001-.001-.001-.001-.001-.001-.001-.001-.001-.001-.001-.001-.001-.001-.001-.001-.001-.001-.001-.001-.001-.001-.001-.001-.001-.001-.001-.001-.001-.001-.001-.001-.001-.001-.001-.001-.001-.001-.001-.001-.001-.001-.001-.001-.001-.001-.001-.001-.001-.001-.001-.001-.001-.001-.001-.001-.001-.001-.001-.001-.001-.001-.001-.001-.001-.001-.001-.001-.001-.001-.001-.001-.001-.001-.001-.001-.001-.001-.001-.001-.001-.001-.001-.001-.001-.001-.001-.001-.001-.001-.001-.001-.001-.001-.001-.001-.001-.001-.001-.001-.001-.001h-.061V29.679h.061zm0-.198v-7.003h-.06c-.002 2.334-.001 4.669-.001 7.003h.061zm0-7.003c0-.498-.037-.992-.162-1.48l-.06.015c.124.482.161.97.161 1.465h.061zm-.162-1.48c-.261-1.012-.957-1.49-1.7-1.595-.74-.103-1.529.166-1.979.647l.045.042c.435-.466 1.203-.729 1.925-.628.72.1 1.395.563 1.65 1.55l.059-.016zm-3.679-.948c-.448.48-.744 1.025-.756 1.7h.06c.013-.655.3-1.186.74-1.658l-.044-.042zm-.756 1.7c-.003.155-.012.317-.012.475h.06c0-.159.01-.314.013-.474l-.061-.002zm-.012.475l-.001 7.248h.061v-7.248h-.06zm-.001 7.248V29.678h.061v-.001-.001-.001-.001-.001-.001-.001-.001-.001-.001-.001-.001-.001-.001-.001-.001-.001-.001-.001-.001-.001-.001-.001-.001-.001-.001-.001-.001-.001-.001-.001-.001-.001-.001-.001-.001-.001-.001-.001-.001-.001-.001-.001-.001-.001-.001-.001-.001-.001-.001-.001-.001-.001-.001-.001-.001-.001-.001-.001-.001-.001-.001-.001-.001-.001-.001-.001-.001-.001-.001-.001-.001-.001-.001-.001-.001-.001-.001-.001-.001-.001-.001-.001-.001-.001-.001-.001-.001-.001-.001-.001-.001-.001-.001-.001-.001-.001-.001-.001-.001-.001-.001-.001-.001-.001-.001-.001-.001-.001-.001-.001-.001-.001-.001-.001-.001-.001-.001-.001-.001-.001-.001-.001-.001-.001-.001-.001-.001-.001-.001-.001-.001-.001-.001-.001-.001-.001-.001-.001-.001-.001-.001-.001-.001-.001-.001-.001-.001-.001-.001-.001-.001-.001-.001-.001-.001-.001-.001-.001-.001-.001-.001-.001-.001-.001-.001-.001-.001-.001-.001-.001-.001-.001-.001-.001-.001-.001-.001-.001-.001-.001-.001-.001-.001-.001-.001-.001-.001-.001-.001-.001-.001-.001-.001-.001-.001-.001-.001-.001-.001-.001-.001-.001-.001h-.061zm.03.175H18.257v.061H22.56v-.061zm-4.273.03v-.026-.026-.026-.026-.026-.026-.026-.026-.027-.026-.026-.026-.026-.026-.026-.026-.026-.026-.026-.027-.026-.026-.026-.026-.026-.026-.026-.026-.026-.027-.026-.026-.026-.026-.026-.026-.026-.026-.027-.026-.026-.026-.026-.026-.026-.026-.026-.027-.026-.026-.026-.026-.026-.026-.026-.026-.026-.027-.026-.026-.026-.026-.026-.026-.026-.026-.026-.026-.027-.026-.026-.026-.026-.026-.026-.026-.026-.026-.027-.026-.026-.026-.026-.026-.026-.026-.026-.026-.027-.026-.026-.026-.026-.026-.026-.026-.026-.026-.027-.026-.026-.026-.026-.026-.026-.026-.026-.026-.027-.026-.026-.026-.026-.026-.026-.026-.026-.026-.026-.027-.026-.026-.026-.026-.026-.026-.026-.026-.026-.026-.027-.026-.026-.026-.026-.026-.026-.026-.026-.027-.026-.026-.026-.026-.026-.026-.026-.026-.026-.027-.026-.026-.026-.026-.026-.026-.026-.026-.026-.026-.026-.027-.026-.026-.026-.026-.026-.026-.026-.026-.026-.027-.026-.026-.026-.026-.026-.026-.026-.026-.026-.027-.026-.026-.026-.026-.026-.026-.026-.026-.026-.027-.026-.026-.026-.026-.026-.026-.026-.026-.026-.026-.027-.026-.026-.026-.026-.026-.026-.026-.026-.026-.026-.027-.026-.026-.026-.026-.026-.026-.026-.026-.026-.027-.026-.026-.026-.026-.026-.026-.026-.026-.026-.027-.026-.026-.026-.026-.026-.026-.026-.026-.026-.026-.027-.026-.026-.026-.026-.026-.026-.026-.026-.026-.027-.026-.026-.026-.026-.026-.026-.026-.026-.026-.027-.026-.026-.026-.026-.026-.026-.026-.026-.026-.027-.026-.026-.026-.026-.026-.026-.026-.026-.026-.026-.027-.026-.026-.026-.026-.026-.026-.026-.026-.026-.027-.026-.026-.026-.026-.026-.026-.026-.026-.026-.027-.026-.026-.026-.026-.026-.026-.026-.026-.027-.026-.026-.026-.026-.026-.026-.026-.026-.026-.027-.026-.026-.026-.026-.026-.026-.026-.026-.026-.026-.027-.026-.026-.026-.026-.026-.026-.026-.026-.027-.026-.026-.026-.026-.026-.026-.026-.026-.026-.027-.026-.026-.026-.026-.026-.026-.026-.027-.026-.026-.026-.026-.026-.026-.026-.026-.026-.027-.026-.026-.026-.026-.026-.026-.026-.026-.027-.026-.026-.026-.026-.026-.026-.026-.026-.026-.026-.027-.026-.026-.026-.026-.026-.026-.026-.026-.027-.026-.026-.026-.026-.026-.026-.026-.026-.027-.026-.026-.026-.026-.026-.026-.026-.027-.026-.026-.026-.026-.026-.026-.026-.026-.027-.026-.026-.026-.026-.026-.026-.026-.026-.027-.026-.026-.026-.026-.026-.026-.026-.026-.027-.026-.026-.026-.026-.026-.026-.026-.026-.027-.026-.026-.026-.026-.026-.026-.026-.027-.026-.026-.026-.026-.026-.026-.026-.026-.027-.026-.026-.026-.026-.026-.026-.027-.026-.026-.026-.026-.026-.026-.026-.027-.026-.026-.026-.026-.026-.026-.026-.027-.026-.026-.026-.026-.026-.026-.026-.027-.026-.026-.026-.026-.026-.026-.026-.026-.027h-.06V29.677h.06zm-.03-13.334H22.558v-.061H18.256v.061zm4.27-.03V18.104h.062v-.003-.004-.003-.004-.003-.004-.003-.004-.003-.004-.003-.003-.004-.003-.004-.004-.003-.003-.004-.003-.004-.003-.004-.003-.004-.003-.004-.003-.004-.003-.004-.003-.004-.003-.004-.003-.004-.003-.004-.003-.004-.003-.004-.003-.004-.003-.003-.004-.003-.004-.003-.004-.003-.004-.003-.004-.003-.004-.003-.004-.003-.004-.003-.004-.003-.004-.003-.004-.003-.004-.003-.004-.003-.004-.003-.004-.003-.003-.004-.003-.004-.003-.004-.003-.004-.003-.004-.003-.004-.003-.004-.003-.004-.003-.004-.003-.004-.003-.004-.003-.004-.003-.004-.003-.004-.003-.004-.003-.004-.003-.004-.003-.004-.003-.003-.004-.003-.004-.003-.004-.004-.003-.003-.004-.003-.004-.003-.004-.003-.004-.003-.004-.003-.004-.003-.004-.003-.004-.003-.004-.003-.004-.003-.004-.003-.004-.003-.004-.003-.004-.003-.004-.003-.004-.003-.004-.003-.003-.004-.003-.004-.003-.004-.003-.004-.003-.004-.003-.004-.003-.004-.003-.004-.003-.004-.003-.004-.003-.004-.003-.004-.003-.004-.003-.004-.003-.004-.003-.004-.003-.004-.003-.004-.003-.004-.003-.004-.003-.004-.003-.004-.003-.004-.003-.004-.003-.004-.003-.004-.003-.004-.003-.003-.004-.004-.003-.003-.004-.003-.004-.004-.003-.003-.004-.004-.003-.003-.004-.003-.004-.003-.004-.003-.004-.003-.004-.003-.004-.003-.004-.003-.004-.003-.004-.003-.004-.003-.004-.003-.004-.003-.004-.003-.004-.003-.004-.003-.004-.003-.004-.003-.004-.003-.004-.003-.004-.003-.004-.003-.004-.003-.004-.003-.004-.003-.004-.003-.004-.003-.004-.003-.004-.003-.004-.003-.004-.003-.004-.003-.004-.003-.004-.003-.004-.003-.004-.003-.004-.003-.004-.003-.004-.003-.004-.003-.004-.003-.004-.003-.004-.003-.004-.003-.004-.003-.004V17v-.004-.003-.004-.003-.004-.003-.004-.003-.004-.003-.004-.003-.004-.003-.004-.004-.003-.003-.004-.003-.004-.003-.004-.003-.004-.004-.003-.003-.004-.004-.003-.004-.003-.004-.003-.004-.003-.004-.003-.004-.003-.004-.003-.004-.003-.004-.003-.004-.003-.004-.003-.004-.003-.004-.003-.004-.003-.004-.003-.004-.003-.004-.003-.004-.003-.004-.003-.004-.004-.003-.003-.004-.003-.004-.004-.003-.004-.003-.004-.003-.004-.003-.004-.003-.004-.003-.004-.003-.004-.003-.004-.003-.004-.003-.004-.003-.004-.004-.003-.003-.004-.003-.004-.004-.003-.004-.003-.004-.003-.004-.003-.004-.003-.004-.003-.004-.003-.004-.003-.004-.003-.004-.003-.004-.003-.004-.004-.003-.004-.003-.004-.003-.004-.003-.004-.003-.004-.003-.004-.003-.004-.003-.004-.003-.004-.004-.003-.004-.003-.004-.003-.004-.003-.004-.003-.004-.003-.004-.003-.004-.003-.004-.003-.004-.004-.003-.004-.003-.004-.003-.004-.003-.004-.003-.004-.003-.004-.004-.003-.004-.003-.004-.003-.004-.003-.004-.003-.004-.003-.004-.003-.004-.003-.004-.004h-.061zm.02 1.82l.034.015.024-.056-.034-.015-.025.056zm.07.006l.093-.125-.05-.036-.092.124.05.037zm.093-.126c.43-.597.922-1.123 1.575-1.48l-.03-.053c-.663.362-1.162.897-1.594 1.498l.05.035zm1.575-1.48c.73-.397 1.518-.531 2.34-.508l.002-.06c-.83-.025-1.63.11-2.371.515l.03.054zm2.34-.508c.891.026 1.735.227 2.494.705l.033-.052c-.77-.485-1.626-.688-2.525-.714l-.002.061zm2.494.705c.974.613 1.568 1.51 1.917 2.587l.058-.018c-.352-1.09-.953-2-1.942-2.621l-.033.052zm1.917 2.587c.271.841.36 1.709.361 2.589h.062c-.001-.884-.091-1.759-.365-2.607l-.058.018zm.361 2.589c.002 2.539.001 5.077.001 7.616h.061c0-2.538.002-5.077 0-7.616h-.062zm.001 7.616c0 .049-.005.096-.008.155l.061.003c.003-.055.008-.107.008-.158h-.061z" fill="#070707" mask="url(#ia)"/><path d="M15.61 29.67h0H11.36V16.325H15.61V29.67zM13.67 9.672c.67-.001 1.24.236 1.645.643.404.406.643.982.645 1.659.002.67-.238 1.24-.648 1.644-.41.403-.991.64-1.675.64-1.332.002-2.281-.95-2.284-2.29-.002-1.34.96-2.295 2.316-2.296z" fill="#070707" stroke="#070707" stroke-width=".031"/></svg><svg fill="none" viewBox="0 0 90 87" id="lr_icon" xmlns="http://www.w3.org/2000/svg"><g clip-path="url(#jclip0_254_468)"><path d="M4.206 3.719h81.796v79.565H4.206V3.719z" fill="url(#jpaint0_radial_254_468)"/><path d="M4.206 3.72h81.796v79.564H4.206V3.72zM.486 87h89.232V0H.487v87zm52.236-50.38c0-.446 0-1.524-.185-3.605 0-.296.075-.37.296-.482 2.267-.928 7.66-2.566 13.681-2.566.296 0 .446.075.446.372v5.353c0 .297-.11.371-.446.371-2.341-.11-5.8.186-7.103.743v23.46c0 .297-.11.447-.446.447h-5.832c-.296 0-.446-.111-.446-.447V36.62h.035zM25.211 60.713c-.446 0-.557-.186-.557-.557V20.188c0-.297.11-.482.446-.482h5.875c.296 0 .371.11.371.446V54.58h15.32c.296 0 .41.11.335.446l-.928 5.279c-.075.296-.26.446-.557.446H25.211v-.04z" fill="#AAD1EB"/></g><defs><radialGradient id="jpaint0_radial_254_468" cx="0" cy="0" r="1" gradientUnits="userSpaceOnUse" gradientTransform="matrix(62.1642 0 0 60.1863 31.146 21.551)"><stop stop-color="#39464D" stop-opacity=".98"/><stop offset="1" stop-color="#05151F"/></radialGradient><clipPath id="jclip0_254_468"><path fill="#fff" transform="translate(.487)" d="M0 0h89.231v87H0z"/></clipPath></defs></svg><svg fill="none" viewBox="0 0 90 87" id="pr_icon" xmlns="http://www.w3.org/2000/svg"><g clip-path="url(#kclip0_254_464)"><path d="M4.196 3.709h81.585v79.36H4.196V3.709z" fill="url(#kpaint0_radial_254_464)"/><path d="M4.196 3.71h81.585v79.359H4.196V3.709zM.486 86.775h89V0h-89v86.775zm53.4-50.136c0-.445 0-1.52-.184-3.595 0-.296.035-.37.295-.48 2.26-.926 7.565-2.56 13.57-2.56.296 0 .446.074.446.37v5.375c0 .296-.11.37-.41.37-2.335-.11-5.71.186-7.01.741v23.364c0 .296-.11.446-.444.446h-5.82c-.296 0-.446-.11-.446-.446l.004-23.584zm-23.734 3.375c.855.075 1.52.075 3.005.075 4.34 0 8.42-1.52 8.42-7.415 0-4.71-2.895-7.085-7.861-7.085-1.485 0-2.89.075-3.56.11l-.004 14.315zm-6.56-19.694c0-.26.074-.445.37-.445 2.374-.11 5.86-.185 9.53-.185 10.27 0 14.76 5.636 14.76 12.87 0 9.42-6.825 13.46-15.205 13.46-1.41 0-1.89-.075-2.895-.075v14.24c0 .296-.11.445-.445.445h-5.71c-.295 0-.445-.11-.445-.445V20.32h.04z" fill="#E579FF"/></g><defs><radialGradient id="kpaint0_radial_254_464" cx="0" cy="0" r="1" gradientUnits="userSpaceOnUse" gradientTransform="matrix(62.0035 0 0 60.0306 31.067 21.495)"><stop stop-color="#4B2D4F" stop-opacity=".98"/><stop offset="1" stop-color="#180024"/></radialGradient><clipPath id="kclip0_254_464"><path fill="#fff" transform="translate(.487)" d="M0 0h89v86.775H0z"/></clipPath></defs></svg><svg fill="none" viewBox="0 0 90 89" id="ps_icon" xmlns="http://www.w3.org/2000/svg"><path d="M3.713 3.78h81.665v80.854H3.713V3.779z" fill="url(#lpaint0_radial_254_449)"/><path d="M3.713 3.78h81.665v80.854H3.713V3.779zM0 88.412h89.073V0H0v88.413zm60.066-52.128c-2.927 0-3.927 1.508-3.927 2.761 0 1.363.66 2.308 4.606 4.38 5.819 2.87 7.64 5.632 7.64 9.666 0 6.05-4.534 9.302-10.657 9.302-3.23 0-6.016-.672-7.604-1.617-.268-.109-.304-.309-.304-.6V54.6c0-.381.179-.49.447-.308a13.66 13.66 0 007.461 2.235c2.928 0 4.16-1.254 4.16-2.944 0-1.363-.858-2.562-4.606-4.542-5.266-2.562-7.462-5.16-7.462-9.521 0-4.87 3.749-8.921 10.246-8.921 3.196 0 5.427.49 6.64 1.053.304.182.376.491.376.763v5.179c0 .309-.179.49-.554.381-1.642-1.053-4.052-1.69-6.462-1.69zM28.15 40.773c.857.072 1.517.072 2.999.072 4.337 0 8.425-1.544 8.425-7.558 0-4.797-2.927-7.214-7.872-7.214a67.97 67.97 0 00-3.57.11l.018 14.59zm-6.622-20.06c0-.272.517-.454.82-.454 2.375-.109 5.91-.182 9.568-.182 10.282 0 14.299 5.742 14.299 13.064 0 9.594-6.837 13.718-15.227 13.718-1.41 0-1.892-.072-2.892-.072v14.499c0 .309-.107.454-.446.454h-5.676c-.304 0-.447-.109-.447-.454V20.713z" fill="#31C5F0"/><defs><radialGradient id="lpaint0_radial_254_449" cx="0" cy="0" r="1" gradientUnits="userSpaceOnUse" gradientTransform="matrix(62.0565 0 0 61.1565 30.617 21.92)"><stop stop-color="#34364E" stop-opacity=".98"/><stop offset="1" stop-color="#0C0824"/></radialGradient></defs></svg><svg fill="none" viewBox="0 0 97 87" id="sketch_icon" xmlns="http://www.w3.org/2000/svg"><g clip-path="url(#mclip0_254_512)" fill-rule="evenodd" clip-rule="evenodd"><path d="M19.993 31.223l28.394 55.575L.662 31.223h19.331zM76.789 31.223L48.395 86.798 96.12 31.223H76.789z" fill="#EA6C00"/><path d="M19.992 31.223H76.78L48.386 86.798 19.992 31.223z" fill="#FDAD00"/><path d="M48.386.424l-26.9 2.843-1.494 27.957L48.386.424zM48.386.424l26.9 2.843 1.493 27.957L48.386.424z" fill="#FDD231"/><path d="M96.12 31.224L75.294 3.268l1.495 27.956h19.33zM.662 31.224L21.488 3.268l-1.495 27.956H.662z" fill="#FDAD00"/><path d="M48.386.424l-28.394 30.8H76.78L48.386.424z" fill="#FEEEB7"/></g><defs><clipPath id="mclip0_254_512"><path fill="#fff" transform="translate(.487)" d="M0 0h96v86.899H0z"/></clipPath></defs></svg><svg fill="none" viewBox="0 0 90 87" id="xd_icon" xmlns="http://www.w3.org/2000/svg"><path d="M8.486 21.512c.026-.089.152-.089.177 0l.116.407a.092.092 0 00.111.064l.41-.103c.09-.023.154.087.09.153l-.295.303a.092.092 0 000 .128l.294.303c.065.066.002.176-.088.153l-.41-.103a.092.092 0 00-.112.064l-.116.407c-.025.089-.151.089-.177 0l-.116-.407a.092.092 0 00-.11-.064l-.411.103c-.09.023-.153-.087-.089-.153l.294-.303a.092.092 0 000-.128l-.294-.303c-.064-.066-.001-.176.089-.153l.41.103a.092.092 0 00.11-.064l.117-.407z" fill="#E5E5E5"/><g clip-path="url(#nclip0_254_460)"><path d="M4.196 3.709h81.585v79.36H4.196V3.709z" fill="#2E001E"/><path d="M.487 0v86.775h89V0h-89zm3.71 3.71H85.78v79.359H4.196V3.709z" fill="#FF2BC2"/><path d="M65.122 36.455c-.555-.26-1.26-.37-2.15-.37-4.674 0-7.79 3.595-7.79 9.569 0 6.824 3.19 9.57 7.345 9.57.89 0 1.855-.111 2.56-.41v-18.36h.035zm-16.61 9.49c0-8.64 5.563-15.39 14.684-15.39.78 0 1.186 0 1.93.076v-9.64c0-.221.185-.371.37-.371h5.97c.296 0 .37.11.37.295V54.81c0 1 0 2.26.186 3.635 0 .26 0 .295-.225.41a22.075 22.075 0 01-9.494 2.15C54.257 61 48.51 56.035 48.51 45.945zM35.865 39.94l10.385 20.135c.185.296.074.595-.225.595h-6.454c-.41 0-.595-.11-.78-.48a1590.541 1590.541 0 01-7.27-15.241h-.074c-2.225 4.97-4.67 10.385-7.045 15.28-.185.295-.37.409-.67.409h-6.151c-.37 0-.41-.296-.224-.52l10.16-19.544-9.826-19.43c-.224-.296 0-.556.26-.556h6.38c.37 0 .555.075.669.41 2.335 4.93 4.71 9.79 6.935 14.76h.075c2.15-4.896 4.524-9.827 6.785-14.686.185-.295.296-.48.67-.48h5.97c.295 0 .409.224.224.555L35.866 39.94z" fill="#FF2BC2"/></g><defs><clipPath id="nclip0_254_460"><path fill="#fff" transform="translate(.487)" d="M0 0h89v86.775H0z"/></clipPath></defs></svg></svg>